<?xml version="1.0" encoding="utf-8"?>
<!-- Generator: Adobe Illustrator 18.0.0, SVG Export Plug-In . SVG Version: 6.00 Build 0)  -->
<!DOCTYPE svg PUBLIC "-//W3C//DTD SVG 1.1//EN" "http://www.w3.org/Graphics/SVG/1.1/DTD/svg11.dtd">
<svg version="1.1" id="Layer_1" xmlns="http://www.w3.org/2000/svg" xmlns:xlink="http://www.w3.org/1999/xlink" x="0px" y="0px"
	 viewBox="-51 0 96 17" enable-background="new -51 0 96 17" xml:space="preserve">
<polygon fill="#81B3D2" points="9,0 11.1,6.5 18,6.5 12.4,10.5 14.6,17 9,13 3.4,17 5.6,10.5 0,6.5 6.9,6.5 "/>
<polygon fill="#81B3D2" points="33,0 35.1,6.5 42,6.5 36.4,10.5 38.6,17 33,13 27.4,17 29.6,10.5 24,6.5 30.9,6.5 "/>
<polygon fill="#81B3D2" points="-15.1,0 -13,6.5 -6.1,6.5 -11.6,10.5 -9.5,17 -15.1,13 -20.6,17 -18.5,10.5 -24.1,6.5 -17.2,6.5 "/>
<polygon fill="#81B3D2" points="-39,0 -36.9,6.5 -30,6.5 -35.6,10.5 -33.4,17 -39,13 -44.6,17 -42.4,10.5 -48,6.5 -41.1,6.5 "/>
</svg>
